<svg id="visual" viewBox="0 0 960 300" width="960" height="300" xmlns="http://www.w3.org/2000/svg" xmlns:xlink="http://www.w3.org/1999/xlink" version="1.1"><g><g transform="translate(16 163)"><path d="M5.3 -0.2C5.3 2.7 2.6 5.4 0.2 5.4C-2.2 5.4 -4.5 2.7 -4.5 -0.2C-4.5 -3.1 -2.2 -6.2 0.2 -6.2C2.6 -6.2 5.3 -3.1 5.3 -0.2Z" stroke="#4c99f6" fill="none" stroke-width="20"></path></g><g transform="translate(6 12)"><path d="M2.3 0.1C2.3 2.6 1.1 5.2 -0.7 5.2C-2.4 5.2 -4.9 2.6 -4.9 0.1C-4.9 -2.4 -2.4 -4.8 -0.7 -4.8C1.1 -4.8 2.3 -2.4 2.3 0.1Z" stroke="#4c99f6" fill="none" stroke-width="20"></path></g><g transform="translate(750 101)"><path d="M3.9 0.1C3.9 1.8 2 3.7 0.1 3.7C-1.7 3.7 -3.5 1.8 -3.5 0.1C-3.5 -1.7 -1.7 -3.4 0.1 -3.4C2 -3.4 3.9 -1.7 3.9 0.1Z" stroke="#4c99f6" fill="none" stroke-width="20"></path></g><g transform="translate(321 288)"><path d="M4.8 0.6C4.8 2.6 2.4 5.3 0.1 5.3C-2.3 5.3 -4.6 2.6 -4.6 0.6C-4.6 -1.4 -2.3 -2.8 0.1 -2.8C2.4 -2.8 4.8 -1.4 4.8 0.6Z" stroke="#4c99f6" fill="none" stroke-width="20"></path></g><g transform="translate(696 219)"><path d="M2.2 -0.1C2.2 0.6 1.1 1.1 0.2 1.1C-0.7 1.1 -1.4 0.6 -1.4 -0.1C-1.4 -0.8 -0.7 -1.6 0.2 -1.6C1.1 -1.6 2.2 -0.8 2.2 -0.1Z" stroke="#4c99f6" fill="none" stroke-width="20"></path></g><g transform="translate(42 64)"><path d="M2.3 0.3C2.3 1.3 1.1 2.7 -0.1 2.7C-1.4 2.7 -2.9 1.3 -2.9 0.3C-2.9 -0.7 -1.4 -1.4 -0.1 -1.4C1.1 -1.4 2.3 -0.7 2.3 0.3Z" stroke="#4c99f6" fill="none" stroke-width="20"></path></g><g transform="translate(243 191)"><path d="M3.2 -0.1C3.2 0.7 1.6 1.5 0 1.5C-1.6 1.5 -3.1 0.7 -3.1 -0.1C-3.1 -1 -1.6 -1.9 0 -1.9C1.6 -1.9 3.2 -1 3.2 -0.1Z" stroke="#4c99f6" fill="none" stroke-width="20"></path></g><g transform="translate(318 50)"><path d="M3.3 0.1C3.3 0.6 1.6 1.1 0.2 1.1C-1.2 1.1 -2.3 0.6 -2.3 0.1C-2.3 -0.4 -1.2 -0.8 0.2 -0.8C1.6 -0.8 3.3 -0.4 3.3 0.1Z" stroke="#4c99f6" fill="none" stroke-width="20"></path></g><g transform="translate(574 47)"><path d="M2.4 -0.2C2.4 0.9 1.2 1.8 0.3 1.8C-0.6 1.8 -1.3 0.9 -1.3 -0.2C-1.3 -1.2 -0.6 -2.4 0.3 -2.4C1.2 -2.4 2.4 -1.2 2.4 -0.2Z" stroke="#4c99f6" fill="none" stroke-width="20"></path></g><g transform="translate(762 294)"><path d="M2.7 -0.6C2.7 0.6 1.3 1.2 -0.1 1.2C-1.6 1.2 -3.2 0.6 -3.2 -0.6C-3.2 -1.8 -1.6 -3.5 -0.1 -3.5C1.3 -3.5 2.7 -1.8 2.7 -0.6Z" stroke="#4c99f6" fill="none" stroke-width="20"></path></g><g transform="translate(882 192)"><path d="M2.1 -0.3C2.1 1.4 1 2.8 0.2 2.8C-0.7 2.8 -1.3 1.4 -1.3 -0.3C-1.3 -2.1 -0.7 -4.1 0.2 -4.1C1 -4.1 2.1 -2.1 2.1 -0.3Z" stroke="#4c99f6" fill="none" stroke-width="20"></path></g><g transform="translate(348 113)"><path d="M2 -0.3C2 0.7 1 1.4 0.1 1.4C-0.8 1.4 -1.6 0.7 -1.6 -0.3C-1.6 -1.2 -0.8 -2.5 0.1 -2.5C1 -2.5 2 -1.2 2 -0.3Z" stroke="#4c99f6" fill="none" stroke-width="20"></path></g><g transform="translate(682 183)"><path d="M2.3 0.4C2.3 1.4 1.2 2.8 0.2 2.8C-0.7 2.8 -1.4 1.4 -1.4 0.4C-1.4 -0.6 -0.7 -1.2 0.2 -1.2C1.2 -1.2 2.3 -0.6 2.3 0.4Z" stroke="#4c99f6" fill="none" stroke-width="20"></path></g><g transform="translate(497 82)"><path d="M1.7 -0.4C1.7 1.2 0.9 2.4 -0.4 2.4C-1.7 2.4 -3.4 1.2 -3.4 -0.4C-3.4 -2 -1.7 -4 -0.4 -4C0.9 -4 1.7 -2 1.7 -0.4Z" stroke="#4c99f6" fill="none" stroke-width="20"></path></g><g transform="translate(430 129)"><path d="M3.6 -0.1C3.6 0.9 1.8 1.9 0.5 1.9C-0.9 1.9 -1.8 0.9 -1.8 -0.1C-1.8 -1.2 -0.9 -2.4 0.5 -2.4C1.8 -2.4 3.6 -1.2 3.6 -0.1Z" stroke="#4c99f6" fill="none" stroke-width="20"></path></g><g transform="translate(4 65)"><path d="M3.6 -0.2C3.6 0.8 1.8 1.5 0 1.5C-1.7 1.5 -3.5 0.8 -3.5 -0.2C-3.5 -1.2 -1.7 -2.3 0 -2.3C1.8 -2.3 3.6 -1.2 3.6 -0.2Z" stroke="#4c99f6" fill="none" stroke-width="20"></path></g><g transform="translate(444 188)"><path d="M1.9 0.4C1.9 1.6 0.9 3.1 -0.3 3.1C-1.5 3.1 -2.9 1.6 -2.9 0.4C-2.9 -0.7 -1.5 -1.5 -0.3 -1.5C0.9 -1.5 1.9 -0.7 1.9 0.4Z" stroke="#4c99f6" fill="none" stroke-width="20"></path></g><g transform="translate(763 273)"><path d="M2.9 0.4C2.9 1.5 1.4 3 0.3 3C-0.9 3 -1.7 1.5 -1.7 0.4C-1.7 -0.6 -0.9 -1.3 0.3 -1.3C1.4 -1.3 2.9 -0.6 2.9 0.4Z" stroke="#4c99f6" fill="none" stroke-width="20"></path></g><g transform="translate(522 262)"><path d="M2.9 -0.1C2.9 0.8 1.5 1.6 0 1.6C-1.4 1.6 -2.9 0.8 -2.9 -0.1C-2.9 -1.1 -1.4 -2.1 0 -2.1C1.5 -2.1 2.9 -1.1 2.9 -0.1Z" stroke="#4c99f6" fill="none" stroke-width="20"></path></g><g transform="translate(474 50)"><path d="M1.8 0C1.8 1.2 0.9 2.5 -0.5 2.5C-1.9 2.5 -3.7 1.2 -3.7 0C-3.7 -1.2 -1.9 -2.5 -0.5 -2.5C0.9 -2.5 1.8 -1.2 1.8 0Z" stroke="#4c99f6" fill="none" stroke-width="20"></path></g><g transform="translate(738 192)"><path d="M1.1 0C1.1 0.3 0.5 0.5 0.2 0.5C-0.2 0.5 -0.4 0.3 -0.4 0C-0.4 -0.3 -0.2 -0.7 0.2 -0.7C0.5 -0.7 1.1 -0.3 1.1 0Z" stroke="#4c99f6" fill="none" stroke-width="20"></path></g><g transform="translate(710 31)"><path d="M1.4 0.2C1.4 1.8 0.7 3.6 -0.3 3.6C-1.4 3.6 -2.7 1.8 -2.7 0.2C-2.7 -1.5 -1.4 -2.9 -0.3 -2.9C0.7 -2.9 1.4 -1.5 1.4 0.2Z" stroke="#4c99f6" fill="none" stroke-width="20"></path></g><g transform="translate(367 227)"><path d="M2.4 0.2C2.4 1 1.2 2 0.1 2C-1 2 -1.9 1 -1.9 0.2C-1.9 -0.5 -1 -1 0.1 -1C1.2 -1 2.4 -0.5 2.4 0.2Z" stroke="#4c99f6" fill="none" stroke-width="20"></path></g><g transform="translate(289 118)"><path d="M5.1 -0.2C5.1 2 2.5 4 0.1 4C-2.2 4 -4.5 2 -4.5 -0.2C-4.5 -2.4 -2.2 -4.8 0.1 -4.8C2.5 -4.8 5.1 -2.4 5.1 -0.2Z" stroke="#4c99f6" fill="none" stroke-width="20"></path></g><g transform="translate(527 90)"><path d="M1.6 0C1.6 0.4 0.8 0.8 0.1 0.8C-0.6 0.8 -1.1 0.4 -1.1 0C-1.1 -0.5 -0.6 -0.9 0.1 -0.9C0.8 -0.9 1.6 -0.5 1.6 0Z" stroke="#4c99f6" fill="none" stroke-width="20"></path></g><g transform="translate(238 232)"><path d="M1.3 0.1C1.3 1.9 0.6 3.8 -0.3 3.8C-1.3 3.8 -2.6 1.9 -2.6 0.1C-2.6 -1.8 -1.3 -3.5 -0.3 -3.5C0.6 -3.5 1.3 -1.8 1.3 0.1Z" stroke="#4c99f6" fill="none" stroke-width="20"></path></g><g transform="translate(38 197)"><path d="M4 0.3C4 1.4 2 2.9 0.4 2.9C-1.1 2.9 -2.2 1.4 -2.2 0.3C-2.2 -0.8 -1.1 -1.6 0.4 -1.6C2 -1.6 4 -0.8 4 0.3Z" stroke="#4c99f6" fill="none" stroke-width="20"></path></g><g transform="translate(598 237)"><path d="M4.1 -0.3C4.1 1.4 2.1 2.9 0.5 2.9C-1.1 2.9 -2.2 1.4 -2.2 -0.3C-2.2 -2 -1.1 -4 0.5 -4C2.1 -4 4.1 -2 4.1 -0.3Z" stroke="#4c99f6" fill="none" stroke-width="20"></path></g><g transform="translate(128 51)"><path d="M1.5 -0.2C1.5 0.4 0.8 0.8 -0.1 0.8C-0.9 0.8 -1.7 0.4 -1.7 -0.2C-1.7 -0.8 -0.9 -1.6 -0.1 -1.6C0.8 -1.6 1.5 -0.8 1.5 -0.2Z" stroke="#4c99f6" fill="none" stroke-width="20"></path></g><g transform="translate(510 115)"><path d="M3.2 0.8C3.2 2.3 1.6 4.6 -0.5 4.6C-2.6 4.6 -5.3 2.3 -5.3 0.8C-5.3 -0.7 -2.6 -1.4 -0.5 -1.4C1.6 -1.4 3.2 -0.7 3.2 0.8Z" stroke="#4c99f6" fill="none" stroke-width="20"></path></g><g transform="translate(772 190)"><path d="M1.2 0C1.2 0.6 0.6 1.2 0.1 1.2C-0.5 1.2 -1 0.6 -1 0C-1 -0.6 -0.5 -1.1 0.1 -1.1C0.6 -1.1 1.2 -0.6 1.2 0Z" stroke="#4c99f6" fill="none" stroke-width="20"></path></g><g transform="translate(786 109)"><path d="M3.2 0.1C3.2 1.1 1.6 2.2 0.2 2.2C-1.3 2.2 -2.6 1.1 -2.6 0.1C-2.6 -1 -1.3 -1.9 0.2 -1.9C1.6 -1.9 3.2 -1 3.2 0.1Z" stroke="#4c99f6" fill="none" stroke-width="20"></path></g><g transform="translate(109 57)"><path d="M2.1 0.4C2.1 1.1 1.1 2.3 0 2.3C-1.1 2.3 -2.3 1.1 -2.3 0.4C-2.3 -0.4 -1.1 -0.8 0 -0.8C1.1 -0.8 2.1 -0.4 2.1 0.4Z" stroke="#4c99f6" fill="none" stroke-width="20"></path></g><g transform="translate(228 147)"><path d="M2.5 0.3C2.5 0.9 1.3 1.8 0.2 1.8C-0.9 1.8 -1.9 0.9 -1.9 0.3C-1.9 -0.4 -0.9 -0.7 0.2 -0.7C1.3 -0.7 2.5 -0.4 2.5 0.3Z" stroke="#4c99f6" fill="none" stroke-width="20"></path></g><g transform="translate(903 163)"><path d="M2.3 -0.3C2.3 1.4 1.1 2.7 -0.4 2.7C-1.9 2.7 -3.7 1.4 -3.7 -0.3C-3.7 -2 -1.9 -4.1 -0.4 -4.1C1.1 -4.1 2.3 -2 2.3 -0.3Z" stroke="#4c99f6" fill="none" stroke-width="20"></path></g><g transform="translate(777 232)"><path d="M1.2 0.4C1.2 1 0.6 2 0 2C-0.7 2 -1.3 1 -1.3 0.4C-1.3 -0.3 -0.7 -0.5 0 -0.5C0.6 -0.5 1.2 -0.3 1.2 0.4Z" stroke="#4c99f6" fill="none" stroke-width="20"></path></g><g transform="translate(248 16)"><path d="M3.6 -0.2C3.6 1.2 1.8 2.5 0.1 2.5C-1.6 2.5 -3.3 1.2 -3.3 -0.2C-3.3 -1.6 -1.6 -3.1 0.1 -3.1C1.8 -3.1 3.6 -1.6 3.6 -0.2Z" stroke="#4c99f6" fill="none" stroke-width="20"></path></g><g transform="translate(296 144)"><path d="M1.7 0C1.7 2 0.8 4 0 4C-0.9 4 -1.7 2 -1.7 0C-1.7 -2.1 -0.9 -4.1 0 -4.1C0.8 -4.1 1.7 -2.1 1.7 0Z" stroke="#4c99f6" fill="none" stroke-width="20"></path></g><g transform="translate(955 216)"><path d="M3.1 -0.3C3.1 0.8 1.6 1.6 0.4 1.6C-0.8 1.6 -1.6 0.8 -1.6 -0.3C-1.6 -1.3 -0.8 -2.7 0.4 -2.7C1.6 -2.7 3.1 -1.3 3.1 -0.3Z" stroke="#4c99f6" fill="none" stroke-width="20"></path></g><g transform="translate(85 145)"><path d="M4.1 -0.2C4.1 1.2 2.1 2.3 0.6 2.3C-0.9 2.3 -1.7 1.2 -1.7 -0.2C-1.7 -1.6 -0.9 -3.1 0.6 -3.1C2.1 -3.1 4.1 -1.6 4.1 -0.2Z" stroke="#4c99f6" fill="none" stroke-width="20"></path></g><g transform="translate(738 27)"><path d="M3 0.6C3 1.9 1.5 3.8 -0.1 3.8C-1.6 3.8 -3.3 1.9 -3.3 0.6C-3.3 -0.7 -1.6 -1.4 -0.1 -1.4C1.5 -1.4 3 -0.7 3 0.6Z" stroke="#4c99f6" fill="none" stroke-width="20"></path></g><g transform="translate(157 161)"><path d="M1.7 0.1C1.7 1.7 0.9 3.4 -0.5 3.4C-1.9 3.4 -3.8 1.7 -3.8 0.1C-3.8 -1.6 -1.9 -3.2 -0.5 -3.2C0.9 -3.2 1.7 -1.6 1.7 0.1Z" stroke="#4c99f6" fill="none" stroke-width="20"></path></g><g transform="translate(382 26)"><path d="M3.6 -0.1C3.6 0.6 1.8 1.2 0.3 1.2C-1.2 1.2 -2.3 0.6 -2.3 -0.1C-2.3 -0.7 -1.2 -1.5 0.3 -1.5C1.8 -1.5 3.6 -0.7 3.6 -0.1Z" stroke="#4c99f6" fill="none" stroke-width="20"></path></g><g transform="translate(466 197)"><path d="M2.1 0.3C2.1 1.6 1.1 3.2 -0.2 3.2C-1.4 3.2 -2.8 1.6 -2.8 0.3C-2.8 -1.1 -1.4 -2.1 -0.2 -2.1C1.1 -2.1 2.1 -1.1 2.1 0.3Z" stroke="#4c99f6" fill="none" stroke-width="20"></path></g><g transform="translate(356 53)"><path d="M0.6 -0.2C0.6 0.7 0.3 1.3 -0.1 1.3C-0.5 1.3 -0.9 0.7 -0.9 -0.2C-0.9 -1 -0.5 -1.9 -0.1 -1.9C0.3 -1.9 0.6 -1 0.6 -0.2Z" stroke="#4c99f6" fill="none" stroke-width="20"></path></g><g transform="translate(856 264)"><path d="M1.7 0.3C1.7 1.3 0.8 2.6 0.1 2.6C-0.6 2.6 -1.2 1.3 -1.2 0.3C-1.2 -0.6 -0.6 -1.3 0.1 -1.3C0.8 -1.3 1.7 -0.6 1.7 0.3Z" stroke="#4c99f6" fill="none" stroke-width="20"></path></g><g transform="translate(705 297)"><path d="M1.4 -0.2C1.4 1.3 0.7 2.6 -0.6 2.6C-1.9 2.6 -3.8 1.3 -3.8 -0.2C-3.8 -1.7 -1.9 -3.5 -0.6 -3.5C0.7 -3.5 1.4 -1.7 1.4 -0.2Z" stroke="#4c99f6" fill="none" stroke-width="20"></path></g><g transform="translate(834 25)"><path d="M1.8 0.2C1.8 1.9 0.9 3.8 0.1 3.8C-0.8 3.8 -1.5 1.9 -1.5 0.2C-1.5 -1.5 -0.8 -3.1 0.1 -3.1C0.9 -3.1 1.8 -1.5 1.8 0.2Z" stroke="#4c99f6" fill="none" stroke-width="20"></path></g><g transform="translate(468 30)"><path d="M1.8 0C1.8 0.3 0.9 0.6 0.3 0.6C-0.4 0.6 -0.7 0.3 -0.7 0C-0.7 -0.3 -0.4 -0.7 0.3 -0.7C0.9 -0.7 1.8 -0.3 1.8 0Z" stroke="#4c99f6" fill="none" stroke-width="20"></path></g><g transform="translate(324 263)"><path d="M0.4 -0.1C0.4 0.2 0.2 0.4 -0.1 0.4C-0.5 0.4 -1 0.2 -1 -0.1C-1 -0.5 -0.5 -1 -0.1 -1C0.2 -1 0.4 -0.5 0.4 -0.1Z" stroke="#4c99f6" fill="none" stroke-width="20"></path></g><g transform="translate(393 90)"><path d="M2 0.3C2 1.3 1 2.6 -0.4 2.6C-1.9 2.6 -3.7 1.3 -3.7 0.3C-3.7 -0.8 -1.9 -1.6 -0.4 -1.6C1 -1.6 2 -0.8 2 0.3Z" stroke="#4c99f6" fill="none" stroke-width="20"></path></g><g transform="translate(369 124)"><path d="M1.2 0.3C1.2 1.1 0.6 2.1 0.1 2.1C-0.4 2.1 -0.8 1.1 -0.8 0.3C-0.8 -0.5 -0.4 -1 0.1 -1C0.6 -1 1.2 -0.5 1.2 0.3Z" stroke="#4c99f6" fill="none" stroke-width="20"></path></g><g transform="translate(610 191)"><path d="M1 0.3C1 1.1 0.5 2.2 -0.1 2.2C-0.7 2.2 -1.3 1.1 -1.3 0.3C-1.3 -0.6 -0.7 -1.1 -0.1 -1.1C0.5 -1.1 1 -0.6 1 0.3Z" stroke="#4c99f6" fill="none" stroke-width="20"></path></g><g transform="translate(574 236)"><path d="M2.1 -0.2C2.1 0.6 1 1.2 0.1 1.2C-0.9 1.2 -1.8 0.6 -1.8 -0.2C-1.8 -0.9 -0.9 -1.9 0.1 -1.9C1 -1.9 2.1 -0.9 2.1 -0.2Z" stroke="#4c99f6" fill="none" stroke-width="20"></path></g><g transform="translate(886 116)"><path d="M4.4 -0.3C4.4 2 2.2 4 0.3 4C-1.7 4 -3.4 2 -3.4 -0.3C-3.4 -2.5 -1.7 -5.1 0.3 -5.1C2.2 -5.1 4.4 -2.5 4.4 -0.3Z" stroke="#4c99f6" fill="none" stroke-width="20"></path></g><g transform="translate(743 219)"><path d="M2.1 0.2C2.1 1 1 1.9 -0.1 1.9C-1.2 1.9 -2.3 1 -2.3 0.2C-2.3 -0.7 -1.2 -1.3 -0.1 -1.3C1 -1.3 2.1 -0.7 2.1 0.2Z" stroke="#4c99f6" fill="none" stroke-width="20"></path></g><g transform="translate(803 130)"><path d="M0.4 -0.1C0.4 0.2 0.2 0.4 0 0.4C-0.2 0.4 -0.3 0.2 -0.3 -0.1C-0.3 -0.4 -0.2 -0.9 0 -0.9C0.2 -0.9 0.4 -0.4 0.4 -0.1Z" stroke="#4c99f6" fill="none" stroke-width="20"></path></g><g transform="translate(795 169)"><path d="M1.5 0.5C1.5 1.6 0.7 3.2 0 3.2C-0.8 3.2 -1.6 1.6 -1.6 0.5C-1.6 -0.6 -0.8 -1.2 0 -1.2C0.7 -1.2 1.5 -0.6 1.5 0.5Z" stroke="#4c99f6" fill="none" stroke-width="20"></path></g><g transform="translate(424 222)"><path d="M1.7 0C1.7 0.5 0.9 1.1 0.2 1.1C-0.5 1.1 -0.9 0.5 -0.9 0C-0.9 -0.6 -0.5 -1.3 0.2 -1.3C0.9 -1.3 1.7 -0.6 1.7 0Z" stroke="#4c99f6" fill="none" stroke-width="20"></path></g><g transform="translate(747 75)"><path d="M0.8 0C0.8 0.3 0.4 0.5 0 0.5C-0.4 0.5 -0.9 0.3 -0.9 0C-0.9 -0.2 -0.4 -0.4 0 -0.4C0.4 -0.4 0.8 -0.2 0.8 0Z" stroke="#4c99f6" fill="none" stroke-width="20"></path></g><g transform="translate(339 184)"><path d="M2.5 0.4C2.5 2.2 1.3 4.4 0.2 4.4C-0.9 4.4 -1.7 2.2 -1.7 0.4C-1.7 -1.3 -0.9 -2.6 0.2 -2.6C1.3 -2.6 2.5 -1.3 2.5 0.4Z" stroke="#4c99f6" fill="none" stroke-width="20"></path></g><g transform="translate(463 117)"><path d="M3.2 0.5C3.2 2.1 1.6 4.2 0.4 4.2C-0.8 4.2 -1.7 2.1 -1.7 0.5C-1.7 -1.1 -0.8 -2.3 0.4 -2.3C1.6 -2.3 3.2 -1.1 3.2 0.5Z" stroke="#4c99f6" fill="none" stroke-width="20"></path></g><g transform="translate(193 106)"><path d="M4.1 -0.2C4.1 1.3 2 2.6 -0.1 2.6C-2.3 2.6 -4.6 1.3 -4.6 -0.2C-4.6 -1.6 -2.3 -3.3 -0.1 -3.3C2 -3.3 4.1 -1.6 4.1 -0.2Z" stroke="#4c99f6" fill="none" stroke-width="20"></path></g><g transform="translate(877 73)"><path d="M4.6 -0.3C4.6 0.7 2.3 1.4 0 1.4C-2.2 1.4 -4.5 0.7 -4.5 -0.3C-4.5 -1.3 -2.2 -2.5 0 -2.5C2.3 -2.5 4.6 -1.3 4.6 -0.3Z" stroke="#4c99f6" fill="none" stroke-width="20"></path></g><g transform="translate(669 284)"><path d="M1.5 0C1.5 0.9 0.7 1.8 0.1 1.8C-0.5 1.8 -1 0.9 -1 0C-1 -1 -0.5 -1.9 0.1 -1.9C0.7 -1.9 1.5 -1 1.5 0Z" stroke="#4c99f6" fill="none" stroke-width="20"></path></g><g transform="translate(909 55)"><path d="M0.7 0.1C0.7 1 0.3 2 0 2C-0.4 2 -0.8 1 -0.8 0.1C-0.8 -0.8 -0.4 -1.6 0 -1.6C0.3 -1.6 0.7 -0.8 0.7 0.1Z" stroke="#4c99f6" fill="none" stroke-width="20"></path></g><g transform="translate(248 71)"><path d="M1 0C1 0.5 0.5 0.9 -0.1 0.9C-0.6 0.9 -1.3 0.5 -1.3 0C-1.3 -0.4 -0.6 -0.9 -0.1 -0.9C0.5 -0.9 1 -0.4 1 0Z" stroke="#4c99f6" fill="none" stroke-width="20"></path></g><g transform="translate(521 30)"><path d="M0.7 -0.2C0.7 0.3 0.4 0.5 -0.1 0.5C-0.6 0.5 -1.1 0.3 -1.1 -0.2C-1.1 -0.6 -0.6 -1.3 -0.1 -1.3C0.4 -1.3 0.7 -0.6 0.7 -0.2Z" stroke="#4c99f6" fill="none" stroke-width="20"></path></g><g transform="translate(169 36)"><path d="M1 0C1 0.7 0.5 1.5 0.1 1.5C-0.3 1.5 -0.6 0.7 -0.6 0C-0.6 -0.7 -0.3 -1.5 0.1 -1.5C0.5 -1.5 1 -0.7 1 0Z" stroke="#4c99f6" fill="none" stroke-width="20"></path></g><g transform="translate(729 235)"><path d="M1.5 -0.1C1.5 0.7 0.7 1.5 0 1.5C-0.8 1.5 -1.6 0.7 -1.6 -0.1C-1.6 -0.9 -0.8 -1.7 0 -1.7C0.7 -1.7 1.5 -0.9 1.5 -0.1Z" stroke="#4c99f6" fill="none" stroke-width="20"></path></g><g transform="translate(292 281)"><path d="M1.8 0.3C1.8 0.9 0.9 1.8 0.1 1.8C-0.7 1.8 -1.3 0.9 -1.3 0.3C-1.3 -0.4 -0.7 -0.7 0.1 -0.7C0.9 -0.7 1.8 -0.4 1.8 0.3Z" stroke="#4c99f6" fill="none" stroke-width="20"></path></g><g transform="translate(104 183)"><path d="M2.3 -0.1C2.3 2.1 1.1 4.2 -0.6 4.2C-2.3 4.2 -4.6 2.1 -4.6 -0.1C-4.6 -2.2 -2.3 -4.5 -0.6 -4.5C1.1 -4.5 2.3 -2.2 2.3 -0.1Z" stroke="#4c99f6" fill="none" stroke-width="20"></path></g><g transform="translate(512 154)"><path d="M1.7 0.1C1.7 0.8 0.8 1.5 0.2 1.5C-0.4 1.5 -0.8 0.8 -0.8 0.1C-0.8 -0.5 -0.4 -0.9 0.2 -0.9C0.8 -0.9 1.7 -0.5 1.7 0.1Z" stroke="#4c99f6" fill="none" stroke-width="20"></path></g><g transform="translate(910 261)"><path d="M1.5 0.6C1.5 2 0.7 3.9 -0.5 3.9C-1.8 3.9 -3.6 2 -3.6 0.6C-3.6 -0.7 -1.8 -1.4 -0.5 -1.4C0.7 -1.4 1.5 -0.7 1.5 0.6Z" stroke="#4c99f6" fill="none" stroke-width="20"></path></g><g transform="translate(926 207)"><path d="M4.7 0.5C4.7 1.8 2.3 3.5 0.6 3.5C-1.1 3.5 -2.2 1.8 -2.2 0.5C-2.2 -0.7 -1.1 -1.5 0.6 -1.5C2.3 -1.5 4.7 -0.7 4.7 0.5Z" stroke="#4c99f6" fill="none" stroke-width="20"></path></g><g transform="translate(567 132)"><path d="M1.9 -0.1C1.9 0.3 0.9 0.7 0.3 0.7C-0.4 0.7 -0.7 0.3 -0.7 -0.1C-0.7 -0.6 -0.4 -1.2 0.3 -1.2C0.9 -1.2 1.9 -0.6 1.9 -0.1Z" stroke="#4c99f6" fill="none" stroke-width="20"></path></g><g transform="translate(264 1)"><path d="M1.6 -0.1C1.6 1.2 0.8 2.5 -0.2 2.5C-1.2 2.5 -2.5 1.2 -2.5 -0.1C-2.5 -1.5 -1.2 -2.9 -0.2 -2.9C0.8 -2.9 1.6 -1.5 1.6 -0.1Z" stroke="#4c99f6" fill="none" stroke-width="20"></path></g><g transform="translate(102 214)"><path d="M1.6 0.2C1.6 1.2 0.8 2.4 -0.1 2.4C-1 2.4 -2 1.2 -2 0.2C-2 -0.9 -1 -1.8 -0.1 -1.8C0.8 -1.8 1.6 -0.9 1.6 0.2Z" stroke="#4c99f6" fill="none" stroke-width="20"></path></g><g transform="translate(110 242)"><path d="M0.9 0C0.9 0.4 0.4 0.8 -0.1 0.8C-0.6 0.8 -1.2 0.4 -1.2 0C-1.2 -0.4 -0.6 -0.7 -0.1 -0.7C0.4 -0.7 0.9 -0.4 0.9 0Z" stroke="#4c99f6" fill="none" stroke-width="20"></path></g><g transform="translate(148 143)"><path d="M0.6 0C0.6 0.4 0.3 0.7 -0.1 0.7C-0.6 0.7 -1.2 0.4 -1.2 0C-1.2 -0.3 -0.6 -0.6 -0.1 -0.6C0.3 -0.6 0.6 -0.3 0.6 0Z" stroke="#4c99f6" fill="none" stroke-width="20"></path></g><g transform="translate(666 142)"><path d="M3.6 -0.3C3.6 1.3 1.8 2.6 0.1 2.6C-1.5 2.6 -3 1.3 -3 -0.3C-3 -2 -1.5 -4 0.1 -4C1.8 -4 3.6 -2 3.6 -0.3Z" stroke="#4c99f6" fill="none" stroke-width="20"></path></g><g transform="translate(812 54)"><path d="M1.5 -0.3C1.5 0.5 0.7 1 -0.2 1C-1.1 1 -2.1 0.5 -2.1 -0.3C-2.1 -1 -1.1 -2.1 -0.2 -2.1C0.7 -2.1 1.5 -1 1.5 -0.3Z" stroke="#4c99f6" fill="none" stroke-width="20"></path></g><g transform="translate(858 144)"><path d="M4.4 0.1C4.4 2.4 2.2 4.8 -0.1 4.8C-2.5 4.8 -5 2.4 -5 0.1C-5 -2.2 -2.5 -4.4 -0.1 -4.4C2.2 -4.4 4.4 -2.2 4.4 0.1Z" stroke="#4c99f6" fill="none" stroke-width="20"></path></g><g transform="translate(328 149)"><path d="M3.4 0C3.4 0.8 1.7 1.7 0.3 1.7C-1.1 1.7 -2.2 0.8 -2.2 0C-2.2 -0.9 -1.1 -1.8 0.3 -1.8C1.7 -1.8 3.4 -0.9 3.4 0Z" stroke="#4c99f6" fill="none" stroke-width="20"></path></g><g transform="translate(145 176)"><path d="M2.1 -0.1C2.1 0.6 1.1 1.1 0.3 1.1C-0.5 1.1 -1 0.6 -1 -0.1C-1 -0.7 -0.5 -1.4 0.3 -1.4C1.1 -1.4 2.1 -0.7 2.1 -0.1Z" stroke="#4c99f6" fill="none" stroke-width="20"></path></g><g transform="translate(414 51)"><path d="M2 -0.1C2 1.5 1 3.1 -0.3 3.1C-1.7 3.1 -3.4 1.5 -3.4 -0.1C-3.4 -1.8 -1.7 -3.5 -0.3 -3.5C1 -3.5 2 -1.8 2 -0.1Z" stroke="#4c99f6" fill="none" stroke-width="20"></path></g><g transform="translate(929 27)"><path d="M2.4 -0.1C2.4 0.4 1.2 0.9 0.3 0.9C-0.5 0.9 -1.1 0.4 -1.1 -0.1C-1.1 -0.7 -0.5 -1.4 0.3 -1.4C1.2 -1.4 2.4 -0.7 2.4 -0.1Z" stroke="#4c99f6" fill="none" stroke-width="20"></path></g><g transform="translate(42 299)"><path d="M1.7 0.2C1.7 0.8 0.8 1.6 0.1 1.6C-0.7 1.6 -1.4 0.8 -1.4 0.2C-1.4 -0.5 -0.7 -1 0.1 -1C0.8 -1 1.7 -0.5 1.7 0.2Z" stroke="#4c99f6" fill="none" stroke-width="20"></path></g><g transform="translate(155 87)"><path d="M2.1 -0.2C2.1 1.2 1 2.3 -0.4 2.3C-1.9 2.3 -3.8 1.2 -3.8 -0.2C-3.8 -1.6 -1.9 -3.1 -0.4 -3.1C1 -3.1 2.1 -1.6 2.1 -0.2Z" stroke="#4c99f6" fill="none" stroke-width="20"></path></g><g transform="translate(42 164)"><path d="M1.3 -0.5C1.3 1 0.7 1.9 -0.4 1.9C-1.5 1.9 -2.9 1 -2.9 -0.5C-2.9 -2 -1.5 -3.9 -0.4 -3.9C0.7 -3.9 1.3 -2 1.3 -0.5Z" stroke="#4c99f6" fill="none" stroke-width="20"></path></g><g transform="translate(458 139)"><path d="M2.6 0.3C2.6 1.3 1.3 2.6 0.3 2.6C-0.7 2.6 -1.4 1.3 -1.4 0.3C-1.4 -0.7 -0.7 -1.4 0.3 -1.4C1.3 -1.4 2.6 -0.7 2.6 0.3Z" stroke="#4c99f6" fill="none" stroke-width="20"></path></g><g transform="translate(947 267)"><path d="M2.3 -0.2C2.3 0.6 1.2 1.2 0.2 1.2C-0.7 1.2 -1.4 0.6 -1.4 -0.2C-1.4 -1 -0.7 -1.9 0.2 -1.9C1.2 -1.9 2.3 -1 2.3 -0.2Z" stroke="#4c99f6" fill="none" stroke-width="20"></path></g><g transform="translate(679 258)"><path d="M0.4 0.1C0.4 0.4 0.2 0.9 -0.1 0.9C-0.3 0.9 -0.7 0.4 -0.7 0.1C-0.7 -0.2 -0.3 -0.5 -0.1 -0.5C0.2 -0.5 0.4 -0.2 0.4 0.1Z" stroke="#4c99f6" fill="none" stroke-width="20"></path></g><g transform="translate(874 51)"><path d="M0.9 -0.3C0.9 0.7 0.4 1.4 -0.1 1.4C-0.7 1.4 -1.4 0.7 -1.4 -0.3C-1.4 -1.3 -0.7 -2.5 -0.1 -2.5C0.4 -2.5 0.9 -1.3 0.9 -0.3Z" stroke="#4c99f6" fill="none" stroke-width="20"></path></g><g transform="translate(598 53)"><path d="M1.7 0.1C1.7 0.5 0.8 1 0.1 1C-0.7 1 -1.5 0.5 -1.5 0.1C-1.5 -0.3 -0.7 -0.6 0.1 -0.6C0.8 -0.6 1.7 -0.3 1.7 0.1Z" stroke="#4c99f6" fill="none" stroke-width="20"></path></g><g transform="translate(81 78)"><path d="M2.9 -0.3C2.9 0.8 1.4 1.6 0.3 1.6C-0.9 1.6 -1.7 0.8 -1.7 -0.3C-1.7 -1.4 -0.9 -2.8 0.3 -2.8C1.4 -2.8 2.9 -1.4 2.9 -0.3Z" stroke="#4c99f6" fill="none" stroke-width="20"></path></g><g transform="translate(12 285)"><path d="M1.1 0.2C1.1 0.6 0.6 1.2 0 1.2C-0.6 1.2 -1.2 0.6 -1.2 0.2C-1.2 -0.2 -0.6 -0.4 0 -0.4C0.6 -0.4 1.1 -0.2 1.1 0.2Z" stroke="#4c99f6" fill="none" stroke-width="20"></path></g><g transform="translate(883 22)"><path d="M2 -0.2C2 0.7 1 1.4 -0.1 1.4C-1.2 1.4 -2.4 0.7 -2.4 -0.2C-2.4 -1.1 -1.2 -2.1 -0.1 -2.1C1 -2.1 2 -1.1 2 -0.2Z" stroke="#4c99f6" fill="none" stroke-width="20"></path></g><g transform="translate(479 290)"><path d="M1.8 0.1C1.8 0.5 0.9 1 0.3 1C-0.4 1 -0.7 0.5 -0.7 0.1C-0.7 -0.3 -0.4 -0.6 0.3 -0.6C0.9 -0.6 1.8 -0.3 1.8 0.1Z" stroke="#4c99f6" fill="none" stroke-width="20"></path></g><g transform="translate(628 124)"><path d="M0.4 0C0.4 0.4 0.2 0.8 0 0.8C-0.2 0.8 -0.4 0.4 -0.4 0C-0.4 -0.5 -0.2 -0.9 0 -0.9C0.2 -0.9 0.4 -0.5 0.4 0Z" stroke="#4c99f6" fill="none" stroke-width="20"></path></g><g transform="translate(843 243)"><path d="M2.7 0.2C2.7 2 1.4 3.9 0 3.9C-1.4 3.9 -2.9 2 -2.9 0.2C-2.9 -1.7 -1.4 -3.3 0 -3.3C1.4 -3.3 2.7 -1.7 2.7 0.2Z" stroke="#4c99f6" fill="none" stroke-width="20"></path></g><g transform="translate(785 147)"><path d="M1.6 0.4C1.6 1.9 0.8 3.9 -0.7 3.9C-2.2 3.9 -4.3 1.9 -4.3 0.4C-4.3 -1.1 -2.2 -2.2 -0.7 -2.2C0.8 -2.2 1.6 -1.1 1.6 0.4Z" stroke="#4c99f6" fill="none" stroke-width="20"></path></g><g transform="translate(303 164)"><path d="M1.4 0.2C1.4 0.9 0.7 1.8 -0.1 1.8C-0.8 1.8 -1.6 0.9 -1.6 0.2C-1.6 -0.4 -0.8 -0.8 -0.1 -0.8C0.7 -0.8 1.4 -0.4 1.4 0.2Z" stroke="#4c99f6" fill="none" stroke-width="20"></path></g><g transform="translate(637 222)"><path d="M2.3 -0.1C2.3 0.5 1.1 0.9 0 0.9C-1.1 0.9 -2.3 0.5 -2.3 -0.1C-2.3 -0.7 -1.1 -1.4 0 -1.4C1.1 -1.4 2.3 -0.7 2.3 -0.1Z" stroke="#4c99f6" fill="none" stroke-width="20"></path></g><g transform="translate(162 127)"><path d="M2.7 0.2C2.7 1.3 1.4 2.6 0.1 2.6C-1.2 2.6 -2.4 1.3 -2.4 0.2C-2.4 -1 -1.2 -1.9 0.1 -1.9C1.4 -1.9 2.7 -1 2.7 0.2Z" stroke="#4c99f6" fill="none" stroke-width="20"></path></g><g transform="translate(530 114)"><path d="M1.3 0.1C1.3 0.4 0.6 0.8 0.2 0.8C-0.3 0.8 -0.6 0.4 -0.6 0.1C-0.6 -0.3 -0.3 -0.6 0.2 -0.6C0.6 -0.6 1.3 -0.3 1.3 0.1Z" stroke="#4c99f6" fill="none" stroke-width="20"></path></g><g transform="translate(610 91)"><path d="M1.1 0.2C1.1 0.6 0.6 1.2 0.1 1.2C-0.4 1.2 -0.8 0.6 -0.8 0.2C-0.8 -0.2 -0.4 -0.4 0.1 -0.4C0.6 -0.4 1.1 -0.2 1.1 0.2Z" stroke="#4c99f6" fill="none" stroke-width="20"></path></g><g transform="translate(813 212)"><path d="M2.3 -0.1C2.3 1.2 1.2 2.4 0.2 2.4C-0.8 2.4 -1.5 1.2 -1.5 -0.1C-1.5 -1.3 -0.8 -2.6 0.2 -2.6C1.2 -2.6 2.3 -1.3 2.3 -0.1Z" stroke="#4c99f6" fill="none" stroke-width="20"></path></g><g transform="translate(858 187)"><path d="M1.1 0.2C1.1 0.9 0.6 1.9 -0.5 1.9C-1.6 1.9 -3.1 0.9 -3.1 0.2C-3.1 -0.5 -1.6 -1 -0.5 -1C0.6 -1 1.1 -0.5 1.1 0.2Z" stroke="#4c99f6" fill="none" stroke-width="20"></path></g><g transform="translate(242 280)"><path d="M0.6 -0.1C0.6 0.9 0.3 1.8 -0.1 1.8C-0.6 1.8 -1.2 0.9 -1.2 -0.1C-1.2 -1 -0.6 -2 -0.1 -2C0.3 -2 0.6 -1 0.6 -0.1Z" stroke="#4c99f6" fill="none" stroke-width="20"></path></g><g transform="translate(357 264)"><path d="M1.4 -0.1C1.4 0.8 0.7 1.6 -0.1 1.6C-1 1.6 -1.9 0.8 -1.9 -0.1C-1.9 -0.9 -1 -1.9 -0.1 -1.9C0.7 -1.9 1.4 -0.9 1.4 -0.1Z" stroke="#4c99f6" fill="none" stroke-width="20"></path></g><g transform="translate(196 187)"><path d="M1.8 0.1C1.8 1.1 0.9 2.3 0.1 2.3C-0.6 2.3 -1.3 1.1 -1.3 0.1C-1.3 -0.9 -0.6 -1.7 0.1 -1.7C0.9 -1.7 1.8 -0.9 1.8 0.1Z" stroke="#4c99f6" fill="none" stroke-width="20"></path></g><g transform="translate(893 280)"><path d="M0.7 0C0.7 0.6 0.4 1.3 -0.3 1.3C-0.9 1.3 -1.8 0.6 -1.8 0C-1.8 -0.6 -0.9 -1.2 -0.3 -1.2C0.4 -1.2 0.7 -0.6 0.7 0Z" stroke="#4c99f6" fill="none" stroke-width="20"></path></g><g transform="translate(463 175)"><path d="M1.3 0C1.3 0.5 0.7 1.1 -0.5 1.1C-1.7 1.1 -3.3 0.5 -3.3 0C-3.3 -0.5 -1.7 -1 -0.5 -1C0.7 -1 1.3 -0.5 1.3 0Z" stroke="#4c99f6" fill="none" stroke-width="20"></path></g><g transform="translate(722 119)"><path d="M2 0.4C2 1.2 1 2.5 -0.1 2.5C-1.2 2.5 -2.3 1.2 -2.3 0.4C-2.3 -0.5 -1.2 -1.1 -0.1 -1.1C1 -1.1 2 -0.5 2 0.4Z" stroke="#4c99f6" fill="none" stroke-width="20"></path></g><g transform="translate(279 22)"><path d="M2.5 0C2.5 1.6 1.2 3.1 0.3 3.1C-0.6 3.1 -1.2 1.6 -1.2 0C-1.2 -1.6 -0.6 -3.1 0.3 -3.1C1.2 -3.1 2.5 -1.6 2.5 0Z" stroke="#4c99f6" fill="none" stroke-width="20"></path></g><g transform="translate(750 163)"><path d="M0.4 -0.1C0.4 0.3 0.2 0.7 -0.2 0.7C-0.6 0.7 -1.1 0.3 -1.1 -0.1C-1.1 -0.5 -0.6 -1.1 -0.2 -1.1C0.2 -1.1 0.4 -0.5 0.4 -0.1Z" stroke="#4c99f6" fill="none" stroke-width="20"></path></g><g transform="translate(3 128)"><path d="M0.7 -0.3C0.7 0.8 0.4 1.5 -0.2 1.5C-0.8 1.5 -1.5 0.8 -1.5 -0.3C-1.5 -1.3 -0.8 -2.5 -0.2 -2.5C0.4 -2.5 0.7 -1.3 0.7 -0.3Z" stroke="#4c99f6" fill="none" stroke-width="20"></path></g><g transform="translate(62 109)"><path d="M4.2 0.1C4.2 0.8 2.1 1.6 0.3 1.6C-1.4 1.6 -2.9 0.8 -2.9 0.1C-2.9 -0.7 -1.4 -1.4 0.3 -1.4C2.1 -1.4 4.2 -0.7 4.2 0.1Z" stroke="#4c99f6" fill="none" stroke-width="20"></path></g><g transform="translate(76 188)"><path d="M2.3 0C2.3 1.6 1.1 3.3 0.1 3.3C-1 3.3 -2.1 1.6 -2.1 0C-2.1 -1.7 -1 -3.3 0.1 -3.3C1.1 -3.3 2.3 -1.7 2.3 0Z" stroke="#4c99f6" fill="none" stroke-width="20"></path></g><g transform="translate(71 289)"><path d="M1.2 -0.3C1.2 0.8 0.6 1.7 -0.3 1.7C-1.3 1.7 -2.6 0.8 -2.6 -0.3C-2.6 -1.4 -1.3 -2.9 -0.3 -2.9C0.6 -2.9 1.2 -1.4 1.2 -0.3Z" stroke="#4c99f6" fill="none" stroke-width="20"></path></g><g transform="translate(822 8)"><path d="M2.8 0.3C2.8 2.5 1.4 5 -0.5 5C-2.4 5 -4.8 2.5 -4.8 0.3C-4.8 -2 -2.4 -4 -0.5 -4C1.4 -4 2.8 -2 2.8 0.3Z" stroke="#4c99f6" fill="none" stroke-width="20"></path></g><g transform="translate(40 243)"><path d="M4.8 0.2C4.8 1.7 2.4 3.4 0.1 3.4C-2.1 3.4 -4.3 1.7 -4.3 0.2C-4.3 -1.3 -2.1 -2.6 0.1 -2.6C2.4 -2.6 4.8 -1.3 4.8 0.2Z" stroke="#4c99f6" fill="none" stroke-width="20"></path></g><g transform="translate(573 9)"><path d="M0.8 0.1C0.8 0.8 0.4 1.7 -0.2 1.7C-0.8 1.7 -1.5 0.8 -1.5 0.1C-1.5 -0.6 -0.8 -1.3 -0.2 -1.3C0.4 -1.3 0.8 -0.6 0.8 0.1Z" stroke="#4c99f6" fill="none" stroke-width="20"></path></g><g transform="translate(409 241)"><path d="M2.1 0C2.1 1.5 1.1 3 0 3C-1.1 3 -2.1 1.5 -2.1 0C-2.1 -1.5 -1.1 -3 0 -3C1.1 -3 2.1 -1.5 2.1 0Z" stroke="#4c99f6" fill="none" stroke-width="20"></path></g><g transform="translate(324 98)"><path d="M2.2 0.6C2.2 2 1.1 3.9 -0.1 3.9C-1.4 3.9 -2.7 2 -2.7 0.6C-2.7 -0.7 -1.4 -1.4 -0.1 -1.4C1.1 -1.4 2.2 -0.7 2.2 0.6Z" stroke="#4c99f6" fill="none" stroke-width="20"></path></g><g transform="translate(223 15)"><path d="M0.9 0C0.9 1.5 0.4 3 -0.3 3C-1.1 3 -2.2 1.5 -2.2 0C-2.2 -1.5 -1.1 -2.9 -0.3 -2.9C0.4 -2.9 0.9 -1.5 0.9 0Z" stroke="#4c99f6" fill="none" stroke-width="20"></path></g><g transform="translate(611 271)"><path d="M2.9 0.1C2.9 1.1 1.5 2.2 0.4 2.2C-0.7 2.2 -1.5 1.1 -1.5 0.1C-1.5 -0.9 -0.7 -1.8 0.4 -1.8C1.5 -1.8 2.9 -0.9 2.9 0.1Z" stroke="#4c99f6" fill="none" stroke-width="20"></path></g><g transform="translate(384 163)"><path d="M1.2 0C1.2 1.3 0.6 2.5 -0.3 2.5C-1.1 2.5 -2.3 1.3 -2.3 0C-2.3 -1.2 -1.1 -2.4 -0.3 -2.4C0.6 -2.4 1.2 -1.2 1.2 0Z" stroke="#4c99f6" fill="none" stroke-width="20"></path></g><g transform="translate(6 248)"><path d="M1 0.3C1 1.1 0.5 2.2 -0.4 2.2C-1.3 2.2 -2.6 1.1 -2.6 0.3C-2.6 -0.6 -1.3 -1.1 -0.4 -1.1C0.5 -1.1 1 -0.6 1 0.3Z" stroke="#4c99f6" fill="none" stroke-width="20"></path></g><g transform="translate(644 177)"><path d="M1.4 0C1.4 1 0.7 2 -0.1 2C-0.9 2 -1.8 1 -1.8 0C-1.8 -1 -0.9 -1.9 -0.1 -1.9C0.7 -1.9 1.4 -1 1.4 0Z" stroke="#4c99f6" fill="none" stroke-width="20"></path></g></g></svg>