<svg id="visual" viewBox="0 0 960 300" width="960" height="300" xmlns="http://www.w3.org/2000/svg" xmlns:xlink="http://www.w3.org/1999/xlink" version="1.1"><g stroke-width="1" stroke-linejoin="bevel"><path d="M498.3 142L513 103L458 142Z" fill="#15384f" stroke="#15384f"></path><path d="M513 103L450.7 66L458 142Z" fill="#15384f" stroke="#15384f"></path><path d="M488 61L450.7 66L513 103Z" fill="#246688" stroke="#246688"></path><path d="M450.7 66L412.7 110L458 142Z" fill="#112e42" stroke="#112e42"></path><path d="M498.3 142L544.7 105L513 103Z" fill="#15384f" stroke="#15384f"></path><path d="M513 103L553.3 75L488 61Z" fill="#00101c" stroke="#00101c"></path><path d="M485 0L430.7 62L450.7 66Z" fill="#19435d" stroke="#19435d"></path><path d="M450.7 66L430.7 62L412.7 110Z" fill="#205a7a" stroke="#205a7a"></path><path d="M515 194L544.7 163L498.3 142Z" fill="#0c2435" stroke="#0c2435"></path><path d="M498.3 142L544.7 163L544.7 105Z" fill="#19435d" stroke="#19435d"></path><path d="M588.7 82L553.3 75L544.7 105Z" fill="#15384f" stroke="#15384f"></path><path d="M544.7 105L553.3 75L513 103Z" fill="#112e42" stroke="#112e42"></path><path d="M460.7 229L515 194L458 142Z" fill="#277297" stroke="#277297"></path><path d="M458 142L515 194L498.3 142Z" fill="#297ea6" stroke="#297ea6"></path><path d="M430.7 62L380.3 83L412.7 110Z" fill="#277297" stroke="#277297"></path><path d="M360 113L404.3 195L412.7 110Z" fill="#081a28" stroke="#081a28"></path><path d="M412.7 110L404.3 195L458 142Z" fill="#297ea6" stroke="#297ea6"></path><path d="M536.3 0L485 0L488 61Z" fill="#205a7a" stroke="#205a7a"></path><path d="M488 61L485 0L450.7 66Z" fill="#15384f" stroke="#15384f"></path><path d="M430.7 62L394.7 0L380.3 83Z" fill="#1d4e6b" stroke="#1d4e6b"></path><path d="M635 124L588.7 82L544.7 105Z" fill="#1d4e6b" stroke="#1d4e6b"></path><path d="M553.3 75L559.3 28L488 61Z" fill="#081a28" stroke="#081a28"></path><path d="M588.7 82L559.3 28L553.3 75Z" fill="#1d4e6b" stroke="#1d4e6b"></path><path d="M404.3 195L460.7 229L458 142Z" fill="#246688" stroke="#246688"></path><path d="M380.3 83L360 113L412.7 110Z" fill="#19435d" stroke="#19435d"></path><path d="M460.7 229L497.3 235L515 194Z" fill="#112e42" stroke="#112e42"></path><path d="M515 194L578.7 197L544.7 163Z" fill="#19435d" stroke="#19435d"></path><path d="M559.3 28L536.3 0L488 61Z" fill="#246688" stroke="#246688"></path><path d="M404.3 195L452.7 240L460.7 229Z" fill="#19435d" stroke="#19435d"></path><path d="M460.7 229L487 257L497.3 235Z" fill="#1d4e6b" stroke="#1d4e6b"></path><path d="M567.3 220L578.7 197L515 194Z" fill="#297ea6" stroke="#297ea6"></path><path d="M544.7 163L635 124L544.7 105Z" fill="#15384f" stroke="#15384f"></path><path d="M485 0L394.7 0L430.7 62Z" fill="#246688" stroke="#246688"></path><path d="M380.3 83L328 95L360 113Z" fill="#00101c" stroke="#00101c"></path><path d="M497.3 235L567.3 220L515 194Z" fill="#297ea6" stroke="#297ea6"></path><path d="M452.7 240L487 257L460.7 229Z" fill="#277297" stroke="#277297"></path><path d="M497.3 235L575.7 268L567.3 220Z" fill="#1d4e6b" stroke="#1d4e6b"></path><path d="M328 95L341.3 167L360 113Z" fill="#205a7a" stroke="#205a7a"></path><path d="M360 113L341.3 167L404.3 195Z" fill="#297ea6" stroke="#297ea6"></path><path d="M404.3 195L353.3 300L452.7 240Z" fill="#15384f" stroke="#15384f"></path><path d="M341.3 167L347 180L404.3 195Z" fill="#112e42" stroke="#112e42"></path><path d="M322 70L328 95L380.3 83Z" fill="#277297" stroke="#277297"></path><path d="M394.7 0L351.3 28L380.3 83Z" fill="#15384f" stroke="#15384f"></path><path d="M649.3 125L635 124L644 178Z" fill="#277297" stroke="#277297"></path><path d="M578.7 197L635 124L544.7 163Z" fill="#246688" stroke="#246688"></path><path d="M588.7 82L596.7 0L559.3 28Z" fill="#081a28" stroke="#081a28"></path><path d="M295.7 201L349.3 209L347 180Z" fill="#00101c" stroke="#00101c"></path><path d="M347 180L349.3 209L404.3 195Z" fill="#0c2435" stroke="#0c2435"></path><path d="M472.7 300L474 300L487 257Z" fill="#112e42" stroke="#112e42"></path><path d="M351.3 28L322 70L380.3 83Z" fill="#1d4e6b" stroke="#1d4e6b"></path><path d="M259.3 118L295.7 201L341.3 167Z" fill="#0c2435" stroke="#0c2435"></path><path d="M341.3 167L295.7 201L347 180Z" fill="#00101c" stroke="#00101c"></path><path d="M645 0L596.7 0L588.7 82Z" fill="#297ea6" stroke="#297ea6"></path><path d="M559.3 28L596.7 0L536.3 0Z" fill="#112e42" stroke="#112e42"></path><path d="M644 178L635 124L578.7 197Z" fill="#246688" stroke="#246688"></path><path d="M635 124L664 94L588.7 82Z" fill="#112e42" stroke="#112e42"></path><path d="M641 219L644 178L578.7 197Z" fill="#205a7a" stroke="#205a7a"></path><path d="M394.7 0L336.3 0L351.3 28Z" fill="#112e42" stroke="#112e42"></path><path d="M351.3 28L310.7 34L322 70Z" fill="#1d4e6b" stroke="#1d4e6b"></path><path d="M487 257L575.7 268L497.3 235Z" fill="#00101c" stroke="#00101c"></path><path d="M567.3 220L641 219L578.7 197Z" fill="#0c2435" stroke="#0c2435"></path><path d="M336.3 0L310.7 34L351.3 28Z" fill="#081a28" stroke="#081a28"></path><path d="M259.3 118L341.3 167L328 95Z" fill="#19435d" stroke="#19435d"></path><path d="M705.3 85L664 94L649.3 125Z" fill="#205a7a" stroke="#205a7a"></path><path d="M649.3 125L664 94L635 124Z" fill="#1d4e6b" stroke="#1d4e6b"></path><path d="M472.7 300L487 257L452.7 240Z" fill="#081a28" stroke="#081a28"></path><path d="M487 257L569.3 300L575.7 268Z" fill="#277297" stroke="#277297"></path><path d="M353.3 300L472.7 300L452.7 240Z" fill="#0c2435" stroke="#0c2435"></path><path d="M575.7 268L641 219L567.3 220Z" fill="#1d4e6b" stroke="#1d4e6b"></path><path d="M644 178L673.3 178L649.3 125Z" fill="#112e42" stroke="#112e42"></path><path d="M336.3 0L312.7 0L310.7 34Z" fill="#081a28" stroke="#081a28"></path><path d="M664 94L645 0L588.7 82Z" fill="#081a28" stroke="#081a28"></path><path d="M259.3 118L322 70L244.7 59Z" fill="#0c2435" stroke="#0c2435"></path><path d="M259.3 118L328 95L322 70Z" fill="#00101c" stroke="#00101c"></path><path d="M349.3 209L353.3 300L404.3 195Z" fill="#081a28" stroke="#081a28"></path><path d="M312.7 0L306 0L310.7 34Z" fill="#277297" stroke="#277297"></path><path d="M641 219L673.3 178L644 178Z" fill="#205a7a" stroke="#205a7a"></path><path d="M474 300L569.3 300L487 257Z" fill="#277297" stroke="#277297"></path><path d="M631.7 300L664.3 241L641 219Z" fill="#19435d" stroke="#19435d"></path><path d="M244.7 59L322 70L310.7 34Z" fill="#081a28" stroke="#081a28"></path><path d="M664 94L666.3 0L645 0Z" fill="#00101c" stroke="#00101c"></path><path d="M699.7 69L666.3 0L664 94Z" fill="#0c2435" stroke="#0c2435"></path><path d="M288.7 261L353.3 300L349.3 209Z" fill="#246688" stroke="#246688"></path><path d="M705.3 85L699.7 69L664 94Z" fill="#112e42" stroke="#112e42"></path><path d="M631.7 300L641 219L575.7 268Z" fill="#297ea6" stroke="#297ea6"></path><path d="M641 219L699.7 214L673.3 178Z" fill="#15384f" stroke="#15384f"></path><path d="M673.3 178L705.3 85L649.3 125Z" fill="#112e42" stroke="#112e42"></path><path d="M751.7 74L705.3 85L780 103Z" fill="#00101c" stroke="#00101c"></path><path d="M295.7 201L288.7 261L349.3 209Z" fill="#15384f" stroke="#15384f"></path><path d="M216.3 224L277 229L295.7 201Z" fill="#277297" stroke="#277297"></path><path d="M306 0L244.7 59L310.7 34Z" fill="#205a7a" stroke="#205a7a"></path><path d="M259.3 118L216.3 224L295.7 201Z" fill="#297ea6" stroke="#297ea6"></path><path d="M277 229L288.7 261L295.7 201Z" fill="#112e42" stroke="#112e42"></path><path d="M676 300L682 241L664.3 241Z" fill="#205a7a" stroke="#205a7a"></path><path d="M664.3 241L699.7 214L641 219Z" fill="#246688" stroke="#246688"></path><path d="M569.3 300L631.7 300L575.7 268Z" fill="#112e42" stroke="#112e42"></path><path d="M682 241L699.7 214L664.3 241Z" fill="#1d4e6b" stroke="#1d4e6b"></path><path d="M228.3 83L231.7 109L259.3 118Z" fill="#081a28" stroke="#081a28"></path><path d="M277 229L216.3 224L288.7 261Z" fill="#277297" stroke="#277297"></path><path d="M244.7 59L228.3 83L259.3 118Z" fill="#246688" stroke="#246688"></path><path d="M288.7 261L309 300L353.3 300Z" fill="#112e42" stroke="#112e42"></path><path d="M288.7 261L304.7 300L309 300Z" fill="#112e42" stroke="#112e42"></path><path d="M751.7 74L699.7 69L705.3 85Z" fill="#297ea6" stroke="#297ea6"></path><path d="M756 53L717.7 0L699.7 69Z" fill="#0c2435" stroke="#0c2435"></path><path d="M699.7 69L717.7 0L666.3 0Z" fill="#112e42" stroke="#112e42"></path><path d="M631.7 300L676 300L664.3 241Z" fill="#081a28" stroke="#081a28"></path><path d="M682 241L749.7 246L699.7 214Z" fill="#1d4e6b" stroke="#1d4e6b"></path><path d="M306 0L226.3 0L244.7 59Z" fill="#00101c" stroke="#00101c"></path><path d="M244.7 59L198.3 77L228.3 83Z" fill="#0c2435" stroke="#0c2435"></path><path d="M761.7 158L705.3 85L673.3 178Z" fill="#297ea6" stroke="#297ea6"></path><path d="M761.7 158L673.3 178L699.7 214Z" fill="#0c2435" stroke="#0c2435"></path><path d="M226.3 0L198.3 77L244.7 59Z" fill="#246688" stroke="#246688"></path><path d="M228.3 83L198.3 77L231.7 109Z" fill="#205a7a" stroke="#205a7a"></path><path d="M231.7 109L216.3 224L259.3 118Z" fill="#19435d" stroke="#19435d"></path><path d="M288.7 261L192.3 300L304.7 300Z" fill="#277297" stroke="#277297"></path><path d="M751.7 74L756 53L699.7 69Z" fill="#205a7a" stroke="#205a7a"></path><path d="M191.3 231L216.3 224L169 164Z" fill="#081a28" stroke="#081a28"></path><path d="M676 300L707.3 285L682 241Z" fill="#1d4e6b" stroke="#1d4e6b"></path><path d="M758 224L761.7 158L699.7 214Z" fill="#15384f" stroke="#15384f"></path><path d="M751.7 74L785 82L756 53Z" fill="#205a7a" stroke="#205a7a"></path><path d="M749.7 246L758 224L699.7 214Z" fill="#00101c" stroke="#00101c"></path><path d="M810.3 82L780 103L827.3 156Z" fill="#00101c" stroke="#00101c"></path><path d="M761.7 158L780 103L705.3 85Z" fill="#246688" stroke="#246688"></path><path d="M707.3 285L749.7 246L682 241Z" fill="#081a28" stroke="#081a28"></path><path d="M676 300L716.3 300L707.3 285Z" fill="#15384f" stroke="#15384f"></path><path d="M707.3 285L747.7 300L749.7 246Z" fill="#1d4e6b" stroke="#1d4e6b"></path><path d="M810.3 82L785 82L780 103Z" fill="#277297" stroke="#277297"></path><path d="M780 103L785 82L751.7 74Z" fill="#081a28" stroke="#081a28"></path><path d="M756 53L767 0L717.7 0Z" fill="#277297" stroke="#277297"></path><path d="M810.3 82L767 0L756 53Z" fill="#19435d" stroke="#19435d"></path><path d="M169 164L216.3 224L231.7 109Z" fill="#297ea6" stroke="#297ea6"></path><path d="M216.3 224L192.3 300L288.7 261Z" fill="#081a28" stroke="#081a28"></path><path d="M146 122L169 164L231.7 109Z" fill="#081a28" stroke="#081a28"></path><path d="M164 17L152.7 71L198.3 77Z" fill="#081a28" stroke="#081a28"></path><path d="M198.3 77L146 122L231.7 109Z" fill="#297ea6" stroke="#297ea6"></path><path d="M226.3 0L164 17L198.3 77Z" fill="#277297" stroke="#277297"></path><path d="M716.3 300L747.7 300L707.3 285Z" fill="#297ea6" stroke="#297ea6"></path><path d="M749.7 246L769 296L758 224Z" fill="#205a7a" stroke="#205a7a"></path><path d="M827.3 156L780 103L761.7 158Z" fill="#15384f" stroke="#15384f"></path><path d="M152.7 71L146 122L198.3 77Z" fill="#1d4e6b" stroke="#1d4e6b"></path><path d="M169 164L152 196L191.3 231Z" fill="#112e42" stroke="#112e42"></path><path d="M827.3 156L761.7 158L758 224Z" fill="#297ea6" stroke="#297ea6"></path><path d="M785 82L810.3 82L756 53Z" fill="#205a7a" stroke="#205a7a"></path><path d="M131.7 167L152 196L169 164Z" fill="#246688" stroke="#246688"></path><path d="M164 17L112.7 43L152.7 71Z" fill="#00101c" stroke="#00101c"></path><path d="M123.7 120L131.7 167L146 122Z" fill="#297ea6" stroke="#297ea6"></path><path d="M226.3 0L158 0L164 17Z" fill="#112e42" stroke="#112e42"></path><path d="M141 253L192.3 300L191.3 231Z" fill="#081a28" stroke="#081a28"></path><path d="M191.3 231L192.3 300L216.3 224Z" fill="#297ea6" stroke="#297ea6"></path><path d="M747.7 300L769 296L749.7 246Z" fill="#19435d" stroke="#19435d"></path><path d="M146 122L131.7 167L169 164Z" fill="#081a28" stroke="#081a28"></path><path d="M152 196L141 253L191.3 231Z" fill="#0c2435" stroke="#0c2435"></path><path d="M123.7 120L146 122L152.7 71Z" fill="#205a7a" stroke="#205a7a"></path><path d="M873.3 218L827.3 156L758 224Z" fill="#15384f" stroke="#15384f"></path><path d="M81.3 72L123.7 120L152.7 71Z" fill="#205a7a" stroke="#205a7a"></path><path d="M109.7 218L152 196L131.7 167Z" fill="#1d4e6b" stroke="#1d4e6b"></path><path d="M109.7 218L141 253L152 196Z" fill="#246688" stroke="#246688"></path><path d="M112.7 0L112.7 43L164 17Z" fill="#205a7a" stroke="#205a7a"></path><path d="M58.3 158L109.7 218L131.7 167Z" fill="#277297" stroke="#277297"></path><path d="M141 253L156 300L192.3 300Z" fill="#246688" stroke="#246688"></path><path d="M158 0L112.7 0L164 17Z" fill="#0c2435" stroke="#0c2435"></path><path d="M99.3 235L109.7 218L67.3 233Z" fill="#15384f" stroke="#15384f"></path><path d="M141 253L134.7 300L156 300Z" fill="#246688" stroke="#246688"></path><path d="M131.7 167L123.7 120L58.3 158Z" fill="#246688" stroke="#246688"></path><path d="M95.3 300L134.7 300L141 253Z" fill="#205a7a" stroke="#205a7a"></path><path d="M81.3 72L152.7 71L112.7 43Z" fill="#15384f" stroke="#15384f"></path><path d="M109.7 218L99.3 235L141 253Z" fill="#0c2435" stroke="#0c2435"></path><path d="M47.3 11L81.3 72L112.7 43Z" fill="#205a7a" stroke="#205a7a"></path><path d="M827.3 156L879.7 107L810.3 82Z" fill="#081a28" stroke="#081a28"></path><path d="M810.3 82L872.3 0L767 0Z" fill="#0c2435" stroke="#0c2435"></path><path d="M888.3 130L879.7 107L827.3 156Z" fill="#277297" stroke="#277297"></path><path d="M747.7 300L836 300L769 296Z" fill="#297ea6" stroke="#297ea6"></path><path d="M769 296L836 300L758 224Z" fill="#0c2435" stroke="#0c2435"></path><path d="M836 300L873.3 218L758 224Z" fill="#246688" stroke="#246688"></path><path d="M884.3 23L872.3 0L810.3 82Z" fill="#00101c" stroke="#00101c"></path><path d="M894.7 161L888.3 130L827.3 156Z" fill="#00101c" stroke="#00101c"></path><path d="M879.7 107L884.3 23L810.3 82Z" fill="#0c2435" stroke="#0c2435"></path><path d="M907.7 90L884.3 23L879.7 107Z" fill="#246688" stroke="#246688"></path><path d="M873.3 218L894.7 161L827.3 156Z" fill="#277297" stroke="#277297"></path><path d="M898.7 0L886.7 3L884.3 23Z" fill="#1d4e6b" stroke="#1d4e6b"></path><path d="M81.3 72L58.3 158L123.7 120Z" fill="#205a7a" stroke="#205a7a"></path><path d="M907.7 90L879.7 107L888.3 130Z" fill="#15384f" stroke="#15384f"></path><path d="M884.3 23L886.7 3L872.3 0Z" fill="#0c2435" stroke="#0c2435"></path><path d="M67.3 233L95.3 300L99.3 235Z" fill="#15384f" stroke="#15384f"></path><path d="M99.3 235L95.3 300L141 253Z" fill="#1d4e6b" stroke="#1d4e6b"></path><path d="M58.3 158L67.3 233L109.7 218Z" fill="#1d4e6b" stroke="#1d4e6b"></path><path d="M960 215L960 163L894.7 161Z" fill="#081a28" stroke="#081a28"></path><path d="M836 300L864.3 300L873.3 218Z" fill="#1d4e6b" stroke="#1d4e6b"></path><path d="M960 92L907.7 90L888.3 130Z" fill="#205a7a" stroke="#205a7a"></path><path d="M960 55L898.7 0L884.3 23Z" fill="#1d4e6b" stroke="#1d4e6b"></path><path d="M886.7 3L898.7 0L872.3 0Z" fill="#205a7a" stroke="#205a7a"></path><path d="M864.3 300L875.7 300L873.3 218Z" fill="#246688" stroke="#246688"></path><path d="M960 163L960 92L888.3 130Z" fill="#205a7a" stroke="#205a7a"></path><path d="M112.7 0L47.3 11L112.7 43Z" fill="#081a28" stroke="#081a28"></path><path d="M81.3 72L0 92L58.3 158Z" fill="#297ea6" stroke="#297ea6"></path><path d="M875.7 300L911.7 266L873.3 218Z" fill="#297ea6" stroke="#297ea6"></path><path d="M0 70L0 92L81.3 72Z" fill="#1d4e6b" stroke="#1d4e6b"></path><path d="M58.3 158L0 205L67.3 233Z" fill="#277297" stroke="#277297"></path><path d="M67.3 233L0 291L95.3 300Z" fill="#277297" stroke="#277297"></path><path d="M47.3 11L0 70L81.3 72Z" fill="#15384f" stroke="#15384f"></path><path d="M0 92L0 165L58.3 158Z" fill="#1d4e6b" stroke="#1d4e6b"></path><path d="M112.7 0L10.3 0L47.3 11Z" fill="#112e42" stroke="#112e42"></path><path d="M47.3 11L10.3 0L0 70Z" fill="#00101c" stroke="#00101c"></path><path d="M960 163L888.3 130L894.7 161Z" fill="#246688" stroke="#246688"></path><path d="M907.7 90L960 55L884.3 23Z" fill="#246688" stroke="#246688"></path><path d="M960 215L894.7 161L873.3 218Z" fill="#15384f" stroke="#15384f"></path><path d="M960 92L960 55L907.7 90Z" fill="#246688" stroke="#246688"></path><path d="M0 165L0 205L58.3 158Z" fill="#15384f" stroke="#15384f"></path><path d="M10.3 0L0 0L0 70Z" fill="#112e42" stroke="#112e42"></path><path d="M911.7 266L960 215L873.3 218Z" fill="#081a28" stroke="#081a28"></path><path d="M960 55L960 0L898.7 0Z" fill="#112e42" stroke="#112e42"></path><path d="M0 205L0 291L67.3 233Z" fill="#081a28" stroke="#081a28"></path><path d="M960 300L960 282L911.7 266Z" fill="#205a7a" stroke="#205a7a"></path><path d="M911.7 266L960 282L960 215Z" fill="#297ea6" stroke="#297ea6"></path><path d="M0 291L0 300L95.3 300Z" fill="#0c2435" stroke="#0c2435"></path><path d="M875.7 300L960 300L911.7 266Z" fill="#277297" stroke="#277297"></path></g></svg>