<svg id="visual" viewBox="0 0 600 900" width="600" height="900" xmlns="http://www.w3.org/2000/svg" xmlns:xlink="http://www.w3.org/1999/xlink" version="1.1"><path d="M0 613L20 607.8C40 602.7 80 592.3 120 583.7C160 575 200 568 240 573.2C280 578.3 320 595.7 360 613.3C400 631 440 649 480 646.5C520 644 560 621 580 609.5L600 598L600 901L580 901C560 901 520 901 480 901C440 901 400 901 360 901C320 901 280 901 240 901C200 901 160 901 120 901C80 901 40 901 20 901L0 901Z" fill="#fa7268"></path><path d="M0 617L20 619.7C40 622.3 80 627.7 120 629.5C160 631.3 200 629.7 240 616.8C280 604 320 580 360 579.8C400 579.7 440 603.3 480 610.7C520 618 560 609 580 604.5L600 600L600 901L580 901C560 901 520 901 480 901C440 901 400 901 360 901C320 901 280 901 240 901C200 901 160 901 120 901C80 901 40 901 20 901L0 901Z" fill="#f56967"></path><path d="M0 662L20 658.8C40 655.7 80 649.3 120 651.2C160 653 200 663 240 665.3C280 667.7 320 662.3 360 666.3C400 670.3 440 683.7 480 696.2C520 708.7 560 720.3 580 726.2L600 732L600 901L580 901C560 901 520 901 480 901C440 901 400 901 360 901C320 901 280 901 240 901C200 901 160 901 120 901C80 901 40 901 20 901L0 901Z" fill="#ef5f67"></path><path d="M0 697L20 707C40 717 80 737 120 740.3C160 743.7 200 730.3 240 727.5C280 724.7 320 732.3 360 740.2C400 748 440 756 480 743.8C520 731.7 560 699.3 580 683.2L600 667L600 901L580 901C560 901 520 901 480 901C440 901 400 901 360 901C320 901 280 901 240 901C200 901 160 901 120 901C80 901 40 901 20 901L0 901Z" fill="#e95667"></path><path d="M0 739L20 742.5C40 746 80 753 120 752.8C160 752.7 200 745.3 240 737C280 728.7 320 719.3 360 711.7C400 704 440 698 480 698.7C520 699.3 560 706.7 580 710.3L600 714L600 901L580 901C560 901 520 901 480 901C440 901 400 901 360 901C320 901 280 901 240 901C200 901 160 901 120 901C80 901 40 901 20 901L0 901Z" fill="#e34c67"></path><path d="M0 766L20 764.5C40 763 80 760 120 757C160 754 200 751 240 755.5C280 760 320 772 360 778C400 784 440 784 480 777.3C520 770.7 560 757.3 580 750.7L600 744L600 901L580 901C560 901 520 901 480 901C440 901 400 901 360 901C320 901 280 901 240 901C200 901 160 901 120 901C80 901 40 901 20 901L0 901Z" fill="#dc4267"></path><path d="M0 823L20 822.7C40 822.3 80 821.7 120 820.8C160 820 200 819 240 814.2C280 809.3 320 800.7 360 789.5C400 778.3 440 764.7 480 759.3C520 754 560 757 580 758.5L600 760L600 901L580 901C560 901 520 901 480 901C440 901 400 901 360 901C320 901 280 901 240 901C200 901 160 901 120 901C80 901 40 901 20 901L0 901Z" fill="#d53867"></path><path d="M0 824L20 825.8C40 827.7 80 831.3 120 835.2C160 839 200 843 240 839.2C280 835.3 320 823.7 360 822.8C400 822 440 832 480 838.8C520 845.7 560 849.3 580 851.2L600 853L600 901L580 901C560 901 520 901 480 901C440 901 400 901 360 901C320 901 280 901 240 901C200 901 160 901 120 901C80 901 40 901 20 901L0 901Z" fill="#ce2e68"></path><path d="M0 868L20 868.3C40 868.7 80 869.3 120 868C160 866.7 200 863.3 240 862.5C280 861.7 320 863.3 360 864.3C400 865.3 440 865.7 480 860.2C520 854.7 560 843.3 580 837.7L600 832L600 901L580 901C560 901 520 901 480 901C440 901 400 901 360 901C320 901 280 901 240 901C200 901 160 901 120 901C80 901 40 901 20 901L0 901Z" fill="#c62368"></path></svg>