<svg id="visual" viewBox="0 0 960 300" width="960" height="300" xmlns="http://www.w3.org/2000/svg" xmlns:xlink="http://www.w3.org/1999/xlink" version="1.1"><path d="M0 42L16 43.8C32 45.7 64 49.3 96 50C128 50.7 160 48.3 192 43.5C224 38.7 256 31.3 288 35.2C320 39 352 54 384 53.5C416 53 448 37 480 37.8C512 38.7 544 56.3 576 62.5C608 68.7 640 63.3 672 57.7C704 52 736 46 768 46.2C800 46.3 832 52.7 864 52.8C896 53 928 47 944 44L960 41L960 0L944 0C928 0 896 0 864 0C832 0 800 0 768 0C736 0 704 0 672 0C640 0 608 0 576 0C544 0 512 0 480 0C448 0 416 0 384 0C352 0 320 0 288 0C256 0 224 0 192 0C160 0 128 0 96 0C64 0 32 0 16 0L0 0Z" fill="#FA7268" stroke-linecap="round" stroke-linejoin="miter"></path></svg>