<svg id="visual" viewBox="0 0 450 900" width="450" height="900" xmlns="http://www.w3.org/2000/svg" xmlns:xlink="http://www.w3.org/1999/xlink" version="1.1"><path d="M0 659L4.7 651.2C9.3 643.3 18.7 627.7 28 621C37.3 614.3 46.7 616.7 56 622.2C65.3 627.7 74.7 636.3 84.2 640.3C93.7 644.3 103.3 643.7 112.8 643.8C122.3 644 131.7 645 141 646.5C150.3 648 159.7 650 169 650.2C178.3 650.3 187.7 648.7 197 640.3C206.3 632 215.7 617 225 615.5C234.3 614 243.7 626 253 627.3C262.3 628.7 271.7 619.3 281 619C290.3 618.7 299.7 627.3 309.2 627.2C318.7 627 328.3 618 337.8 619.7C347.3 621.3 356.7 633.7 366 637.8C375.3 642 384.7 638 394 639.8C403.3 641.7 412.7 649.3 422 647.8C431.3 646.3 440.7 635.7 445.3 630.3L450 625L450 901L445.3 901C440.7 901 431.3 901 422 901C412.7 901 403.3 901 394 901C384.7 901 375.3 901 366 901C356.7 901 347.3 901 337.8 901C328.3 901 318.7 901 309.2 901C299.7 901 290.3 901 281 901C271.7 901 262.3 901 253 901C243.7 901 234.3 901 225 901C215.7 901 206.3 901 197 901C187.7 901 178.3 901 169 901C159.7 901 150.3 901 141 901C131.7 901 122.3 901 112.8 901C103.3 901 93.7 901 84.2 901C74.7 901 65.3 901 56 901C46.7 901 37.3 901 28 901C18.7 901 9.3 901 4.7 901L0 901Z" fill="#fa7268"></path><path d="M0 692L4.7 692C9.3 692 18.7 692 28 690.8C37.3 689.7 46.7 687.3 56 684.5C65.3 681.7 74.7 678.3 84.2 680C93.7 681.7 103.3 688.3 112.8 692C122.3 695.7 131.7 696.3 141 692.7C150.3 689 159.7 681 169 675C178.3 669 187.7 665 197 668.2C206.3 671.3 215.7 681.7 225 678.8C234.3 676 243.7 660 253 655C262.3 650 271.7 656 281 663.2C290.3 670.3 299.7 678.7 309.2 680.5C318.7 682.3 328.3 677.7 337.8 673C347.3 668.3 356.7 663.7 366 659.8C375.3 656 384.7 653 394 651.7C403.3 650.3 412.7 650.7 422 648.7C431.3 646.7 440.7 642.3 445.3 640.2L450 638L450 901L445.3 901C440.7 901 431.3 901 422 901C412.7 901 403.3 901 394 901C384.7 901 375.3 901 366 901C356.7 901 347.3 901 337.8 901C328.3 901 318.7 901 309.2 901C299.7 901 290.3 901 281 901C271.7 901 262.3 901 253 901C243.7 901 234.3 901 225 901C215.7 901 206.3 901 197 901C187.7 901 178.3 901 169 901C159.7 901 150.3 901 141 901C131.7 901 122.3 901 112.8 901C103.3 901 93.7 901 84.2 901C74.7 901 65.3 901 56 901C46.7 901 37.3 901 28 901C18.7 901 9.3 901 4.7 901L0 901Z" fill="#f16367"></path><path d="M0 685L4.7 690C9.3 695 18.7 705 28 704.8C37.3 704.7 46.7 694.3 56 691.8C65.3 689.3 74.7 694.7 84.2 696.3C93.7 698 103.3 696 112.8 696.7C122.3 697.3 131.7 700.7 141 703.5C150.3 706.3 159.7 708.7 169 713C178.3 717.3 187.7 723.7 197 719.5C206.3 715.3 215.7 700.7 225 697.7C234.3 694.7 243.7 703.3 253 708.8C262.3 714.3 271.7 716.7 281 715.8C290.3 715 299.7 711 309.2 709.8C318.7 708.7 328.3 710.3 337.8 712.7C347.3 715 356.7 718 366 713.8C375.3 709.7 384.7 698.3 394 695.7C403.3 693 412.7 699 422 705.8C431.3 712.7 440.7 720.3 445.3 724.2L450 728L450 901L445.3 901C440.7 901 431.3 901 422 901C412.7 901 403.3 901 394 901C384.7 901 375.3 901 366 901C356.7 901 347.3 901 337.8 901C328.3 901 318.7 901 309.2 901C299.7 901 290.3 901 281 901C271.7 901 262.3 901 253 901C243.7 901 234.3 901 225 901C215.7 901 206.3 901 197 901C187.7 901 178.3 901 169 901C159.7 901 150.3 901 141 901C131.7 901 122.3 901 112.8 901C103.3 901 93.7 901 84.2 901C74.7 901 65.3 901 56 901C46.7 901 37.3 901 28 901C18.7 901 9.3 901 4.7 901L0 901Z" fill="#e85467"></path><path d="M0 745L4.7 749.2C9.3 753.3 18.7 761.7 28 761.8C37.3 762 46.7 754 56 749C65.3 744 74.7 742 84.2 744.3C93.7 746.7 103.3 753.3 112.8 755.8C122.3 758.3 131.7 756.7 141 754.2C150.3 751.7 159.7 748.3 169 744.2C178.3 740 187.7 735 197 738.8C206.3 742.7 215.7 755.3 225 756C234.3 756.7 243.7 745.3 253 740C262.3 734.7 271.7 735.3 281 739C290.3 742.7 299.7 749.3 309.2 753.8C318.7 758.3 328.3 760.7 337.8 759C347.3 757.3 356.7 751.7 366 753.2C375.3 754.7 384.7 763.3 394 764.7C403.3 766 412.7 760 422 758.8C431.3 757.7 440.7 761.3 445.3 763.2L450 765L450 901L445.3 901C440.7 901 431.3 901 422 901C412.7 901 403.3 901 394 901C384.7 901 375.3 901 366 901C356.7 901 347.3 901 337.8 901C328.3 901 318.7 901 309.2 901C299.7 901 290.3 901 281 901C271.7 901 262.3 901 253 901C243.7 901 234.3 901 225 901C215.7 901 206.3 901 197 901C187.7 901 178.3 901 169 901C159.7 901 150.3 901 141 901C131.7 901 122.3 901 112.8 901C103.3 901 93.7 901 84.2 901C74.7 901 65.3 901 56 901C46.7 901 37.3 901 28 901C18.7 901 9.3 901 4.7 901L0 901Z" fill="#de4467"></path><path d="M0 780L4.7 780.2C9.3 780.3 18.7 780.7 28 782.3C37.3 784 46.7 787 56 786.5C65.3 786 74.7 782 84.2 783.5C93.7 785 103.3 792 112.8 797C122.3 802 131.7 805 141 804.5C150.3 804 159.7 800 169 797.5C178.3 795 187.7 794 197 795.3C206.3 796.7 215.7 800.3 225 799C234.3 797.7 243.7 791.3 253 788C262.3 784.7 271.7 784.3 281 785.7C290.3 787 299.7 790 309.2 789.3C318.7 788.7 328.3 784.3 337.8 783.2C347.3 782 356.7 784 366 785C375.3 786 384.7 786 394 789.8C403.3 793.7 412.7 801.3 422 800.2C431.3 799 440.7 789 445.3 784L450 779L450 901L445.3 901C440.7 901 431.3 901 422 901C412.7 901 403.3 901 394 901C384.7 901 375.3 901 366 901C356.7 901 347.3 901 337.8 901C328.3 901 318.7 901 309.2 901C299.7 901 290.3 901 281 901C271.7 901 262.3 901 253 901C243.7 901 234.3 901 225 901C215.7 901 206.3 901 197 901C187.7 901 178.3 901 169 901C159.7 901 150.3 901 141 901C131.7 901 122.3 901 112.8 901C103.3 901 93.7 901 84.2 901C74.7 901 65.3 901 56 901C46.7 901 37.3 901 28 901C18.7 901 9.3 901 4.7 901L0 901Z" fill="#d23467"></path><path d="M0 829L4.7 829C9.3 829 18.7 829 28 831C37.3 833 46.7 837 56 836.5C65.3 836 74.7 831 84.2 828.2C93.7 825.3 103.3 824.7 112.8 828C122.3 831.3 131.7 838.7 141 841.3C150.3 844 159.7 842 169 839.2C178.3 836.3 187.7 832.7 197 833.3C206.3 834 215.7 839 225 841.8C234.3 844.7 243.7 845.3 253 842.8C262.3 840.3 271.7 834.7 281 831C290.3 827.3 299.7 825.7 309.2 824.8C318.7 824 328.3 824 337.8 825.2C347.3 826.3 356.7 828.7 366 832.3C375.3 836 384.7 841 394 841.7C403.3 842.3 412.7 838.7 422 837.3C431.3 836 440.7 837 445.3 837.5L450 838L450 901L445.3 901C440.7 901 431.3 901 422 901C412.7 901 403.3 901 394 901C384.7 901 375.3 901 366 901C356.7 901 347.3 901 337.8 901C328.3 901 318.7 901 309.2 901C299.7 901 290.3 901 281 901C271.7 901 262.3 901 253 901C243.7 901 234.3 901 225 901C215.7 901 206.3 901 197 901C187.7 901 178.3 901 169 901C159.7 901 150.3 901 141 901C131.7 901 122.3 901 112.8 901C103.3 901 93.7 901 84.2 901C74.7 901 65.3 901 56 901C46.7 901 37.3 901 28 901C18.7 901 9.3 901 4.7 901L0 901Z" fill="#c62368"></path></svg>