<svg id="visual" viewBox="0 0 450 900" width="450" height="900" xmlns="http://www.w3.org/2000/svg" xmlns:xlink="http://www.w3.org/1999/xlink" version="1.1"><path d="M0 64L12.5 64.7C25 65.3 50 66.7 75 73.8C100 81 125 94 150 92.7C175 91.3 200 75.7 225 79.3C250 83 275 106 300 106.5C325 107 350 85 375 88.3C400 91.7 425 120.3 437.5 134.7L450 149L450 0L437.5 0C425 0 400 0 375 0C350 0 325 0 300 0C275 0 250 0 225 0C200 0 175 0 150 0C125 0 100 0 75 0C50 0 25 0 12.5 0L0 0Z" fill="#FA7268" stroke-linecap="round" stroke-linejoin="miter"></path></svg>