<svg id="visual" viewBox="0 0 600 900" width="600" height="900" xmlns="http://www.w3.org/2000/svg" xmlns:xlink="http://www.w3.org/1999/xlink" version="1.1"><path d="M0 597L20 585.5C40 574 80 551 120 556.7C160 562.3 200 596.7 240 605.7C280 614.7 320 598.3 360 597.3C400 596.3 440 610.7 480 626.8C520 643 560 661 580 670L600 679L600 901L580 901C560 901 520 901 480 901C440 901 400 901 360 901C320 901 280 901 240 901C200 901 160 901 120 901C80 901 40 901 20 901L0 901Z" fill="#fa7268"></path><path d="M0 597L20 614.7C40 632.3 80 667.7 120 662.2C160 656.7 200 610.3 240 604.3C280 598.3 320 632.7 360 638.8C400 645 440 623 480 609.2C520 595.3 560 589.7 580 586.8L600 584L600 901L580 901C560 901 520 901 480 901C440 901 400 901 360 901C320 901 280 901 240 901C200 901 160 901 120 901C80 901 40 901 20 901L0 901Z" fill="#f46767"></path><path d="M0 656L20 665C40 674 80 692 120 689C160 686 200 662 240 664.5C280 667 320 696 360 711.2C400 726.3 440 727.7 480 714.3C520 701 560 673 580 659L600 645L600 901L580 901C560 901 520 901 480 901C440 901 400 901 360 901C320 901 280 901 240 901C200 901 160 901 120 901C80 901 40 901 20 901L0 901Z" fill="#ee5c67"></path><path d="M0 698L20 700.5C40 703 80 708 120 719.8C160 731.7 200 750.3 240 744C280 737.7 320 706.3 360 706.8C400 707.3 440 739.7 480 743.5C520 747.3 560 722.7 580 710.3L600 698L600 901L580 901C560 901 520 901 480 901C440 901 400 901 360 901C320 901 280 901 240 901C200 901 160 901 120 901C80 901 40 901 20 901L0 901Z" fill="#e75167"></path><path d="M0 701L20 699.8C40 698.7 80 696.3 120 712.8C160 729.3 200 764.7 240 766C280 767.3 320 734.7 360 728C400 721.3 440 740.7 480 738.7C520 736.7 560 713.3 580 701.7L600 690L600 901L580 901C560 901 520 901 480 901C440 901 400 901 360 901C320 901 280 901 240 901C200 901 160 901 120 901C80 901 40 901 20 901L0 901Z" fill="#df4667"></path><path d="M0 742L20 745.3C40 748.7 80 755.3 120 767.3C160 779.3 200 796.7 240 806.5C280 816.3 320 818.7 360 814.2C400 809.7 440 798.3 480 796.8C520 795.3 560 803.7 580 807.8L600 812L600 901L580 901C560 901 520 901 480 901C440 901 400 901 360 901C320 901 280 901 240 901C200 901 160 901 120 901C80 901 40 901 20 901L0 901Z" fill="#d73b67"></path><path d="M0 796L20 800.2C40 804.3 80 812.7 120 816.8C160 821 200 821 240 816.8C280 812.7 320 804.3 360 807.8C400 811.3 440 826.7 480 831.2C520 835.7 560 829.3 580 826.2L600 823L600 901L580 901C560 901 520 901 480 901C440 901 400 901 360 901C320 901 280 901 240 901C200 901 160 901 120 901C80 901 40 901 20 901L0 901Z" fill="#cf3068"></path><path d="M0 838L20 837.7C40 837.3 80 836.7 120 839.8C160 843 200 850 240 856C280 862 320 867 360 865C400 863 440 854 480 854.7C520 855.3 560 865.7 580 870.8L600 876L600 901L580 901C560 901 520 901 480 901C440 901 400 901 360 901C320 901 280 901 240 901C200 901 160 901 120 901C80 901 40 901 20 901L0 901Z" fill="#c62368"></path></svg>